<?xml version="1.0" standalone="no"?>
<!DOCTYPE svg PUBLIC "-//W3C//DTD SVG 20010904//EN"
 "http://www.w3.org/TR/2001/REC-SVG-20010904/DTD/svg10.dtd">
<svg version="1.0" xmlns="http://www.w3.org/2000/svg"
 width="230.000000pt" height="173.000000pt" viewBox="0 0 230.000000 173.000000"
 preserveAspectRatio="xMidYMid meet">
<metadata>
Created by potrace 1.11, written by Peter Selinger 2001-2013
</metadata>
<g transform="translate(0.000000,173.000000) scale(0.100000,-0.100000)"
fill="#000000" stroke="none">
<path d="M1110 1673 c-17 -26 -31 -57 -31 -70 -1 -13 -2 -29 -3 -35 -1 -7 3
-32 10 -56 l12 -43 -25 26 c-70 70 -157 31 -132 -59 10 -36 34 -58 76 -71 21
-6 22 -4 16 27 l-6 33 27 -24 c29 -28 33 -41 11 -41 -19 0 -20 -37 -1 -42 12
-2 12 -6 2 -21 -13 -16 -15 -16 -39 3 -15 12 -28 16 -32 10 -4 -6 -15 -4 -31
7 -18 11 -28 13 -36 5 -7 -7 -17 -7 -34 0 -17 8 -27 8 -38 -1 -8 -7 -20 -10
-27 -6 -11 7 -71 -7 -114 -26 -11 -5 -34 -13 -52 -18 -28 -8 -34 -6 -47 15
-13 18 -21 22 -38 15 -17 -6 -26 -3 -38 12 -14 17 -20 18 -38 8 -18 -10 -25
-9 -38 4 -20 19 -29 19 -49 -1 -12 -13 -19 -14 -28 -5 -16 16 -47 14 -53 -4
-4 -10 -15 -12 -34 -9 -21 5 -31 1 -42 -15 -8 -11 -17 -18 -21 -15 -11 11 -46
-7 -52 -27 -4 -10 -15 -19 -25 -19 -17 0 -48 -38 -41 -49 1 -2 -8 -9 -21 -15
-16 -8 -22 -19 -20 -34 2 -14 -2 -22 -11 -22 -16 0 -30 -27 -22 -41 3 -4 -4
-18 -15 -29 -16 -16 -18 -24 -10 -40 7 -12 7 -20 1 -20 -15 0 -24 -39 -12 -54
7 -9 7 -16 0 -23 -15 -15 -1 -53 19 -54 11 0 12 -3 5 -6 -15 -5 -17 -44 -4
-58 16 -18 158 -300 165 -327 3 -16 12 -27 18 -25 24 5 18 -30 -7 -41 -30 -14
-34 -56 -8 -73 16 -9 18 -24 15 -111 -2 -71 -8 -105 -18 -115 -18 -19 -18 -48
2 -67 14 -14 114 -16 953 -16 896 0 939 1 954 18 21 23 22 46 3 61 -11 9 -16
41 -18 117 -2 57 0 104 4 104 14 0 29 41 23 60 -3 10 -15 22 -26 25 -25 8 -24
31 1 45 11 6 20 16 18 23 -2 12 23 63 120 246 41 78 52 108 45 120 -7 11 -4
20 11 33 17 13 19 20 10 35 -8 13 -8 23 -1 35 8 12 7 21 -3 33 -8 10 -13 30
-12 45 2 18 -2 30 -13 34 -11 4 -14 12 -10 26 4 13 0 23 -14 32 -12 7 -21 23
-21 36 0 14 -9 27 -25 34 -14 6 -25 19 -25 29 0 10 -12 21 -30 28 -16 5 -30
16 -30 24 0 17 -27 30 -42 21 -5 -3 -17 4 -25 16 -12 17 -22 21 -43 16 -19 -3
-30 -1 -34 9 -7 18 -53 20 -59 3 -3 -10 -9 -8 -24 5 -20 17 -53 14 -53 -5 0
-6 -6 -8 -12 -5 -7 3 -20 8 -29 12 -10 3 -24 -1 -34 -12 -11 -10 -29 -16 -45
-15 -18 2 -30 -2 -33 -12 -8 -20 -50 -21 -85 -2 -40 21 -109 39 -120 32 -6 -3
-22 -1 -37 6 -21 10 -28 9 -35 -2 -6 -10 -12 -11 -22 -2 -16 13 -58 5 -58 -10
0 -7 -5 -6 -14 1 -10 9 -16 8 -26 -4 -16 -19 -37 -19 -56 0 -14 13 -13 15 5
15 14 0 21 6 21 20 0 12 -7 20 -16 20 -11 0 -14 5 -10 16 3 9 6 17 6 19 0 3 9
9 21 16 20 10 21 9 14 -21 l-7 -31 33 14 c62 25 94 107 56 144 -21 21 -74 19
-105 -4 l-27 -20 0 71 c0 62 -4 77 -29 114 -16 23 -33 42 -38 42 -4 0 -22 -21
-38 -47z m-548 -469 c5 -3 -3 -22 -18 -41 -15 -20 -35 -56 -44 -82 l-18 -46
-141 -3 -141 -3 0 -77 c0 -73 -2 -80 -28 -105 -15 -15 -31 -27 -34 -27 -14 0
-30 94 -25 141 17 141 127 252 266 268 50 6 156 -9 183 -25z m1466 -9 c136
-74 195 -246 131 -380 l-24 -50 -3 43 c-3 34 -8 45 -28 54 -22 11 -24 16 -24
90 l0 78 -134 0 -134 0 -6 34 c-4 18 -20 52 -36 75 -17 22 -31 46 -32 52 -5
22 65 39 152 36 72 -3 93 -8 138 -32z m-979 -88 c7 -32 10 -62 6 -65 -11 -11
-425 -5 -425 6 0 11 42 82 52 89 7 4 72 8 143 8 97 0 139 4 165 16 19 9 38 14
41 10 3 -3 11 -32 18 -64z m428 38 c128 0 132 -1 150 -25 11 -14 25 -40 31
-57 10 -31 10 -33 -14 -33 -13 0 -51 8 -84 17 -57 15 -64 15 -114 0 -53 -17
-201 -24 -209 -9 -2 4 3 37 11 73 l16 67 40 -16 c30 -12 77 -16 173 -17z m560
-632 c-3 -3 -11 -2 -17 2 -8 5 -7 11 2 22 12 15 13 14 16 -1 2 -10 1 -20 -1
-23z m-43 -17 c-3 -9 3 -17 17 -21 l22 -7 -24 -19 c-25 -19 -69 -26 -69 -10 0
9 48 71 56 71 2 0 1 -6 -2 -14z m-1701 -40 c4 -10 1 -13 -9 -9 -7 3 -14 9 -14
14 0 14 17 10 23 -5z"/>
</g>
</svg>
